<svg xmlns="http://www.w3.org/2000/svg" viewBox="0 0 512 512" role="img" aria-label="AlgoEdu AI">
  <rect width="512" height="512" rx="112" fill="#0052d2"/>
  <path fill="#ffffff" d="M256 96c-61.9 0-112 50.1-112 112s50.1 112 112 112 112-50.1 112-112S317.9 96 256 96zm0 176c-35.3 0-64-28.7-64-64s28.7-64 64-64 64 28.7 64 64-28.7 64-64 64z"/>
  <path fill="#ffffff" d="M128 352c0-70.7 57.3-128 128-128s128 57.3 128 128v32H128v-32z"/>
  <circle cx="368" cy="160" r="48" fill="#7c3aed"/>
  <path fill="#ffffff" d="M368 136v48M344 160h48" stroke="#ffffff" stroke-width="16" stroke-linecap="round"/>
</svg>
